<?xml version="1.0" standalone="no"?>
<!DOCTYPE svg PUBLIC "-//W3C//DTD SVG 1.1//EN" "http://www.w3.org/Graphics/SVG/1.1/DTD/svg11.dtd" >
<svg xmlns="http://www.w3.org/2000/svg">
<metadata></metadata>
<defs>
<font id="aircruiserregular" horiz-adv-x="1613" >
<font-face units-per-em="2048" ascent="1638" descent="-410" />
<missing-glyph horiz-adv-x="774" />
<glyph horiz-adv-x="0" />
<glyph unicode="&#xd;" horiz-adv-x="1024" />
<glyph unicode=" "  horiz-adv-x="774" />
<glyph unicode="&#x09;" horiz-adv-x="774" />
<glyph unicode="&#xa0;" horiz-adv-x="774" />
<glyph unicode="!" horiz-adv-x="559" d="M61 84q0 -10 5.5 -23.5t15.5 -28t24.5 -23.5t32.5 -9h283q35 16 49 35.5t21 52.5v205q-12 25 -32 42t-44 21h-283q-43 -10 -51 -25.5t-21 -37.5v-209zM61 500l70 -82h295l66 78v680h-431v-676z" />
<glyph unicode="&#x22;" horiz-adv-x="999" d="M61 608q0 -10 5.5 -23.5t15.5 -27.5t24.5 -23.5t32.5 -9.5h84q43 25 79 61t65.5 75.5t55.5 80.5t48 76v293q-12 25 -28.5 43t-41.5 23h-262q-43 -10 -54 -26.5t-24 -39.5v-502zM522 608q0 -10 5 -23.5t15.5 -27.5t25 -23.5t32.5 -9.5h84q43 25 79 61t65.5 75.5t55 80.5 t48.5 76v293q-12 25 -28.5 43t-41.5 23h-262q-43 -10 -54 -26.5t-24 -39.5v-502z" />
<glyph unicode="#" horiz-adv-x="1626" d="M61 199h228v-199h430v199h182v-199h430v199h228v340h-228v106h228v340h-228v191h-430v-191h-182v191h-430v-191h-228v-340h228v-106h-228v-340zM719 539v106h182v-106h-182z" />
<glyph unicode="$" horiz-adv-x="1470" d="M61 0h547v-344h254v344h447q33 0 63.5 30.5t30.5 61.5v557q-8 14 -13.5 28.5t-14.5 28t-25.5 26.5t-44.5 28h-443v76h541v338h-541v354h-254v-354h-454q-6 0 -31 -11.5t-33 -19.5q-8 -12 -18.5 -32.5t-10.5 -27.5v-573q0 -10 6.5 -22.5t14.5 -24.5l2 -6l45 -37h479v-80 h-547v-340zM524 612v224h84v-150q-27 -16 -47.5 -35t-36.5 -39zM862 340v80h92v-45l-14 -35h-78z" />
<glyph unicode="%" horiz-adv-x="2410" d="M61 559q0 -18 9.5 -32.5t22.5 -26t27.5 -18.5t22.5 -11h721q27 0 44.5 11.5t26.5 26.5t13 30.5t4 23.5v502q0 53 -42 82t-87 29h-667q-12 0 -28.5 -9.5t-31 -24t-25 -31t-10.5 -28.5v-524zM436 754v155h154v-155h-154zM713 0h430l549 1176h-430zM1452 88q0 -18 9 -32.5 t22.5 -26t28 -18.5t22.5 -11h721q27 0 44 11.5t26.5 26.5t13.5 30.5t4 23.5v502q0 53 -42 82t-87 29h-668q-12 0 -28.5 -9.5t-30.5 -24t-24.5 -31t-10.5 -28.5v-524zM1827 283v155h153v-155h-153z" />
<glyph unicode="&#x26;" horiz-adv-x="1527" d="M61 102q0 -10 17.5 -26.5t40 -33.5t44 -29.5t32.5 -12.5h1036v428h229v340h-934l-2 55h496v357h-838q-10 0 -29.5 -11.5t-40 -26t-36 -30.5t-15.5 -25v-985zM524 358v70h279v-70h-279z" />
<glyph unicode="'" horiz-adv-x="538" d="M61 608q0 -10 5.5 -23.5t15.5 -27.5t24.5 -23.5t32.5 -9.5h84q43 25 79 61t65.5 75.5t55.5 80.5t48 76v293q-12 25 -28.5 43t-41.5 23h-262q-43 -10 -54 -26.5t-24 -39.5v-502z" />
<glyph unicode="(" horiz-adv-x="880" d="M61 -70v1325q0 6 11.5 28t19.5 34q8 8 17.5 19.5t13.5 9.5h690v-338h-289v-830h289v-340h-690l-31 29q-8 14 -19.5 35.5t-11.5 27.5z" />
<glyph unicode=")" horiz-adv-x="880" d="M59 -162h691l30 29q8 14 19.5 35.5t11.5 27.5v1325q0 6 -11.5 28t-19.5 34q-8 8 -17 19.5t-13 9.5h-691v-338h289v-830h-289v-340z" />
<glyph unicode="*" horiz-adv-x="647" d="M61 1061v98q0 16 15 17h86l-60 53l-3 9l-1 3q0 -4 1 -2t3 12l74 72q10 2 12 3t-2 1q6 0 11 -4l57 -59v84q0 12 18 12h103q16 0 16 -12v-84l55 59q6 2 10 3l3 1q2 0 3 -1t5 -3l74 -72q2 -4 4 -5t2 -5q0 -2 -2 -5t-4 -7l-56 -53h78q16 0 17 -17v-98q0 -16 -17 -17h-78 l56 -55q2 -4 4 -6t2 -6t-2 -5t-4 -5l-74 -72q-2 -2 -8 -2q-10 0 -13 2l-55 55v-80q0 -12 -16 -12h-103q-18 0 -18 12v80l-57 -55q-2 -2 -11 -2q-8 0 -10 2l-74 72q-2 10 -3 12t-1 -2l1 3l3 9l58 55h-84q-14 0 -15 17z" />
<glyph unicode="+" horiz-adv-x="843" d="M61 420h187v-189h340v189h188v340h-188v186h-340v-186h-187v-340z" />
<glyph unicode="," horiz-adv-x="550" d="M61 -209q0 -10 5.5 -23.5t15.5 -27.5t24.5 -23.5t32.5 -9.5h97q43 25 78.5 60.5t65.5 75.5t55.5 81t47.5 76v293q-12 25 -28.5 43t-40.5 22h-275q-43 -10 -54 -26.5t-24 -38.5v-502z" />
<glyph unicode="-" horiz-adv-x="843" d="M61 420h715v340h-715v-340z" />
<glyph unicode="." horiz-adv-x="571" d="M61 84v209q12 23 23.5 39t54.5 26h295q25 -4 41.5 -22.5t28.5 -42.5v-205q-6 -33 -20.5 -52.5t-49.5 -35.5h-295q-18 0 -32.5 9t-24.5 23.5t-15.5 28t-5.5 23.5z" />
<glyph unicode="/" horiz-adv-x="1067" d="M41 0l549 1176h430l-549 -1176h-430z" />
<glyph unicode="0" d="M61 145v877q0 20 16.5 48t40 50.5t50.5 39t49 16.5h1114q37 0 76 -12.5t69.5 -36t50 -58.5t19.5 -78v-837q0 -14 -6 -40t-22.5 -51.5t-45 -44t-71.5 -18.5h-1204q-12 6 -36 19.5t-45.5 32t-38 42t-16.5 51.5zM557 340h496v467h-496v-467zM651 500v145q8 16 15.5 28.5 t35.5 18.5h209q31 -6 47 -47v-143q-4 -23 -14 -37t-33 -25h-209q-25 0 -38 22.5t-13 37.5z" />
<glyph unicode="1" horiz-adv-x="1075" d="M61 0h947v324h-242v852h-705v-324h238v-528h-238v-324z" />
<glyph unicode="2" horiz-adv-x="1470" d="M59 0v649q8 23 12.5 39.5t20.5 36.5l66 35h497q82 -14 155 -48t128 -100v224h-879v338h1250q6 0 30.5 -11.5t32.5 -19.5q8 -12 18.5 -32.5t10.5 -27.5v-573q0 -10 -7.5 -24.5t-15.5 -28.5l-45 -37h-825v-78h893v-342h-1342z" />
<glyph unicode="3" horiz-adv-x="1421" d="M61 0h1160q8 0 30.5 12.5t45 29.5t40 33.5t17.5 26.5v985q0 8 -15.5 24.5t-36 31t-41 26t-28.5 11.5h-1170l168 -357h660l-2 -57h-629v-338h631v-70h-664z" />
<glyph unicode="4" horiz-adv-x="1716" d="M61 305l449 871h944v-533h195v-338h-193v-305h-448v305h-947zM770 647h219v189h-115z" />
<glyph unicode="5" horiz-adv-x="1470" d="M61 0h1248q33 0 63.5 30.5t30.5 61.5v557q-8 23 -12.5 39.5t-20.5 36.5l-65 35h-498q-82 -14 -154.5 -48t-128.5 -100v224h776v338h-1239v-664q0 -10 7.5 -24.5t15.5 -28.5l45 -37h825v-45l-14 -35h-879v-340z" />
<glyph unicode="6" horiz-adv-x="1470" d="M61 90q2 -10 10.5 -27.5t16.5 -31.5l53 -31h1168q33 0 63.5 30.5t30.5 61.5v557q-8 23 -12.5 39.5t-20.5 36.5l-65 35h-498q-82 -14 -154.5 -48t-128.5 -100v224h879v338h-1247q-2 -2 -30 -11.5t-36 -17.5q-8 -12 -18.5 -33.5t-10.5 -28.5v-993zM526 340v80h428v-45 l-14 -35h-414z" />
<glyph unicode="7" horiz-adv-x="1460" d="M61 0h539l793 852v324h-1332v-324h791z" />
<glyph unicode="8" horiz-adv-x="1525" d="M61 92q6 -41 45 -66.5t74 -25.5h1159q35 0 74 25.5t45 66.5v367q0 43 -9 84t-54 75q20 23 37.5 57t25.5 87v303q-2 10 -14 26.5t-30.5 33t-40 30.5t-40.5 21h-1130q-18 -6 -42 -20.5t-45.5 -31t-37 -33t-17.5 -26.5v-303q8 -53 25.5 -87t38.5 -57q-45 -35 -54.5 -75.5 t-9.5 -83.5v-367zM528 633v203h463v-72h-90q-98 0 -187 -25.5t-155 -101.5zM530 342v121h459v-121h-459z" />
<glyph unicode="9" horiz-adv-x="1470" d="M61 0h1280q4 -2 13.5 10.5t17.5 18.5q8 14 19.5 34.5t11.5 28.5v991q0 4 -11.5 27t-19.5 35l-31 29h-1185q-33 0 -64 -30t-31 -61v-665h803l-116 342h-238v76h430v-496h-879v-340z" />
<glyph unicode=":" horiz-adv-x="561" d="M61 84q0 -10 5.5 -23.5t15.5 -28t24.5 -23.5t32.5 -9h283q35 16 49 35.5t21 52.5v205q-12 25 -29 43t-41 22h-283q-43 -10 -54 -26.5t-24 -38.5v-209zM63 504q0 -10 5.5 -23.5t15.5 -28t24.5 -23.5t32.5 -9h283q35 16 49 35.5t21 52.5v205q-12 25 -28.5 43t-41.5 22h-283 q-43 -10 -54 -26.5t-24 -38.5v-209z" />
<glyph unicode=";" horiz-adv-x="571" d="M61 -209q0 -10 5.5 -23.5t15.5 -27.5t24.5 -23.5t32.5 -9.5h117q43 25 79 60.5t65.5 75.5t55 81t48.5 76v293q-12 25 -28.5 43t-41.5 22h-295q-43 -10 -54 -26.5t-24 -38.5v-502zM63 504q0 -10 5.5 -23.5t15.5 -28t24.5 -23.5t32.5 -9h293q35 16 49.5 34.5t20.5 51.5v205 q-12 25 -28.5 43t-41.5 22h-293q-43 -10 -54 -25.5t-24 -37.5v-209z" />
<glyph unicode="&#x3c;" horiz-adv-x="1095" d="M41 559l496 -559h512l-445 559l445 617h-512z" />
<glyph unicode="=" horiz-adv-x="1013" d="M61 199v340h885v-340h-885zM61 645v340h885v-340h-885z" />
<glyph unicode="&#x3e;" horiz-adv-x="1095" d="M41 0l444 559l-444 617h512l496 -617l-496 -559h-512z" />
<glyph unicode="?" horiz-adv-x="1470" d="M59 836v338h1250q6 0 30.5 -11.5t32.5 -19.5q8 -12 18.5 -32.5t10.5 -27.5v-573q0 -10 -7.5 -24.5t-15.5 -28.5l-45 -37h-1048v229q8 23 12 39.5t20 36.5l66 35h272q82 -14 155 -48t128 -100v224h-879zM287 84v209q12 23 23.5 39t54.5 26h294q25 -4 41.5 -22.5 t28.5 -42.5v-205q-6 -33 -20.5 -52.5t-49.5 -35.5h-294q-18 0 -33 9t-25 23.5t-15 28t-5 23.5z" />
<glyph unicode="@" horiz-adv-x="2107" d="M61 -70q0 -6 11.5 -27.5t19.5 -35.5l31 -29h1161v340h-760v830h1053v-428h-86v254q0 53 -42 81.5t-87 28.5h-668q-12 0 -28.5 -9t-30.5 -23.5t-24.5 -31t-10.5 -28.5v-524q0 -18 9 -32.5t22.5 -26t28 -18.5t22.5 -11h1296l31 28q8 14 19.5 36t11.5 28v923q0 6 -11.5 28 t-19.5 34q-8 8 -17.5 19.5t-13.5 9.5h-1855q-4 2 -13.5 -9.5t-17.5 -19.5q-8 -12 -19.5 -33.5t-11.5 -28.5v-1325zM975 522v156h153v-156h-153z" />
<glyph unicode="A" horiz-adv-x="1775" d="M41 0h514l436 836h250v-189h-213l-186 -340h418v-307h448v1057q-10 43 -28.5 65.5t-73.5 57.5h-979z" />
<glyph unicode="B" horiz-adv-x="1527" d="M61 0v1176h1117q47 -10 73.5 -43t26.5 -56v-321q68 -63 104.5 -108.5t54 -77t20.5 -54t3 -43.5v-381q-6 -31 -35.5 -58.5t-64.5 -33.5h-1299zM522 614l27 13q33 43 70.5 68.5t73.5 41t62.5 20.5t35.5 5l20 2v72h-289v-222zM524 342h463v121h-463v-121z" />
<glyph unicode="C" horiz-adv-x="1583" d="M61 92q0 -6 11.5 -27.5t19.5 -35.5l31 -29h1298q33 0 64 30.5t31 61.5v404h-449v-156h-543v496h543v-156h449v434l-58 66h-1333q-2 0 -13.5 -13.5t-19.5 -21.5q-8 -12 -19.5 -33.5t-11.5 -28.5v-991z" />
<glyph unicode="D" horiz-adv-x="1583" d="M59 836v340h1332q2 0 12 -3.5t22.5 -7.5t23.5 -9t15 -9q4 -8 12.5 -21.5t16.5 -29t14 -27.5t6 -18v-938q0 -8 -6 -23.5t-20 -32t-37 -33t-53 -24.5h-1336v694h449v-354h543v496h-994z" />
<glyph unicode="E" horiz-adv-x="1583" d="M61 92v991q0 4 11.5 27t19.5 35l31 29h1298q33 0 64 -30t31 -61v-665h-777l117 342h211v76h-543v-496h992v-340h-1393h-1q-4 0 -12 10q-10 12 -18 19q-8 14 -19.5 34.5t-11.5 28.5z" />
<glyph unicode="F" horiz-adv-x="1460" d="M61 0v1180h1332v-324h-869v-96h713l-154 -340h-561v-420h-461z" />
<glyph unicode="G" horiz-adv-x="1583" d="M59 113q0 -8 6.5 -23.5t20.5 -32t36.5 -33t53.5 -24.5h1335v694h-448v-354h-543v496h993v340h-1331q-2 0 -12 -3.5t-22.5 -7.5t-23.5 -9t-15 -9q-4 -8 -12.5 -21.5t-16.5 -29t-14.5 -27.5t-6.5 -18v-938z" />
<glyph unicode="H" horiz-adv-x="1560" d="M61 0h451v340h532v-340h449v1176h-449v-404h-532v404h-451v-1176z" />
<glyph unicode="I" horiz-adv-x="1075" d="M61 0h947v324h-242v528h242v324h-947v-324h238v-528h-238v-324z" />
<glyph unicode="J" horiz-adv-x="1374" d="M61 145q0 -31 17.5 -54t40 -41.5t46 -30t34.5 -17.5q2 0 3 -1l1 -1h987q33 0 55.5 17.5t36.5 41t19.5 49t5.5 44.5v1024h-496v-838h-254v231h-496v-424z" />
<glyph unicode="K" horiz-adv-x="1589" d="M61 0h451v340h324l231 -92v-248h455v383l-344 184l344 228v381h-451v-240l-235 -162h-324v402h-451v-1176z" />
<glyph unicode="L" horiz-adv-x="1351" d="M61 92q0 -10 15.5 -25.5t36 -29.5t40 -25.5t29.5 -11.5h1121l-170 356h-623v824h-449v-1088z" />
<glyph unicode="M" horiz-adv-x="1800" d="M61 0h453v401l211 -401h373l217 401v-401h418v1176h-478l-348 -613l-350 613h-496v-1176z" />
<glyph unicode="N" horiz-adv-x="1583" d="M61 0h451v559l571 -559h433v1176h-449v-496l-575 496h-431v-1176z" />
<glyph unicode="O" d="M61 145v9v868q0 20 16.5 48t40 50.5t50.5 39t49 16.5h1114q37 0 76 -12.5t69.5 -36t50 -58.5t19.5 -78v-837q0 -10 -7 -35t-19.5 -51.5t-28.5 -47t-35 -20.5h-1253l-1 1t-3 1q-10 6 -34 17.5t-46.5 30t-40 42t-17.5 53.5zM557 340h496v467h-496v-467z" />
<glyph unicode="P" horiz-adv-x="1523" d="M61 0v1176h1332l63 -62v-680q0 -29 -27.5 -52.5t-64.5 -39.5t-73 -24.5t-54 -8.5h-725v-309h-451zM524 465q66 102 166.5 143t212.5 41h86v187h-465v-371z" />
<glyph unicode="Q" d="M61 145q0 -31 17.5 -54t40 -41.5t46 -30t34.5 -17.5q2 0 3 -1l1 -1h1454l-113 139l2 15v839q0 43 -19.5 78t-50 59.5t-69.5 37t-76 12.5h-1114q-23 0 -49.5 -16.5t-50 -40t-40 -50t-16.5 -47.5v-881zM557 340v469h496v-213h-473l225 -256h-248z" />
<glyph unicode="R" horiz-adv-x="1648" d="M61 0h451v373h139l393 -373h564l-279 309q18 0 54 8.5t73 24.5t64.5 40t27.5 52v680l-63 62h-1424v-1176zM524 465v371h557v-187h-178q-113 0 -213 -41t-166 -143z" />
<glyph unicode="S" horiz-adv-x="1583" d="M61 0v340h992l14 35v45h-913q-29 8 -61 37.5t-32 60.5v557q0 6 14.5 29.5t22.5 36.5q8 8 36 19t30 14h1352v-338h-992v-224q55 66 128 99.5t155 48.5h604q41 -18 61.5 -47t43.5 -64v-532q0 -16 -11.5 -36t-28 -38t-36 -30.5t-33.5 -12.5h-1346z" />
<glyph unicode="T" horiz-adv-x="1460" d="M61 852h388v-754q20 -84 73 -98h586v324h-190v528h475v324h-1332v-324z" />
<glyph unicode="U" d="M61 145v1035h496v-840h496v840h493v-1026q0 -18 -6 -44t-20.5 -50.5t-38 -42t-56.5 -17.5h-1222l-1 1t-3 1q-10 6 -34 17.5t-46.5 30t-40 42t-17.5 53.5z" />
<glyph unicode="V" horiz-adv-x="1728" d="M41 1176l584 -1176h952q53 41 63.5 80t20.5 80v1016h-451v-834h-217l-438 834h-514z" />
<glyph unicode="W" horiz-adv-x="2213" d="M41 1176h514l229 -531l199 531h244l229 -531l199 531h512l-512 -1176h-428l-119 287l-125 -287h-428z" />
<glyph unicode="X" horiz-adv-x="1542" d="M41 0h514l213 244l215 -244h512l-444 559l444 617h-512l-215 -289l-213 289h-514l446 -617z" />
<glyph unicode="Y" horiz-adv-x="1583" d="M61 0h1360q33 0 64 30.5t31 61.5v1082h-478v-414h-231q-82 -14 -155 -48t-128 -100v562h-463v-664q0 -10 10.5 -28.5t18.5 -32.5l53 -29h924v-45l-14 -35h-992v-340z" />
<glyph unicode="Z" horiz-adv-x="1460" d="M61 0h1332v324h-676l676 528v324h-1332v-324h666l-659 -528h-7v-324z" />
<glyph unicode="[" horiz-adv-x="878" d="M61 -162v1508h750v-338h-289v-830h289v-340h-750z" />
<glyph unicode="\" horiz-adv-x="1067" d="M41 1176l549 -1176h430l-549 1176h-430z" />
<glyph unicode="]" horiz-adv-x="878" d="M61 -162h750v1508h-750v-338h289v-830h-289v-340z" />
<glyph unicode="^" horiz-adv-x="1775" d="M61 0v1049q10 43 29 69.5t74 61.5h979l586 -1180h-515l-436 836h-250v-189h213l187 -340h-418v-307h-449z" />
<glyph unicode="_" horiz-adv-x="1185" d="M61 0h1057v324h-1057v-324z" />
<glyph unicode="`" horiz-adv-x="741" d="M61 1014l2 -27l158 -246l27 -12q68 -33 150.5 -66.5t168.5 -33.5h21l55 35q16 10 23.5 29.5t7.5 37.5q0 29 -10 45l-273 422q-16 8 -28.5 15.5t-30.5 7.5q-27 0 -41 -9l-205 -133q-25 -23 -25 -65z" />
<glyph unicode="a" d="M61 0h496v309h496v-309h493v1026q0 18 -9 45t-24.5 50.5t-36 41t-40.5 17.5h-1239q-20 -4 -44 -16.5t-44.5 -32t-34 -44t-13.5 -53.5v-1034zM557 463v377h496v-193h-117q-113 0 -213 -40t-166 -144z" />
<glyph unicode="b" horiz-adv-x="1527" d="M61 0h1299q35 6 64.5 33.5t35.5 58.5v359q0 43 -11 83.5t-56 75.5q20 23 37.5 56.5t25.5 87.5v315q0 20 -27.5 55t-72.5 52h-1295v-1176zM522 614v222h467v-78h-135q-78 0 -159 -32t-146 -99zM524 342v121h463v-121h-463z" />
<glyph unicode="c" horiz-adv-x="1583" d="M61 92q0 -6 11.5 -27.5t19.5 -35.5l31 -29h1298q33 0 64 30.5t31 61.5v404h-449v-156h-543v496h543v-156h449v434l-58 66h-1333q-2 0 -13.5 -13.5t-19.5 -21.5q-8 -12 -19.5 -33.5t-11.5 -28.5v-991z" />
<glyph unicode="d" horiz-adv-x="1583" d="M61 0h1328q6 2 19 7t26.5 11.5t26 12.5t16.5 12t11 21.5t13 32t10.5 29.5t4.5 15v879q0 2 -5.5 17.5t-12.5 34t-14 35.5t-9 23q-4 4 -16.5 12.5t-26 16.5t-24.5 14.5t-13 6.5h-1334v-1180zM510 340v496h543v-496h-543z" />
<glyph unicode="e" horiz-adv-x="1460" d="M61 0v1180h1332v-324h-869v-96h713l-154 -340h-559v-96h869v-324h-1332z" />
<glyph unicode="f" horiz-adv-x="1409" d="M61 0h451v389h641v338h-629v96h660l168 357h-1170q-10 0 -29.5 -11.5t-40 -26t-36 -30.5t-15.5 -25v-1087z" />
<glyph unicode="g" horiz-adv-x="1583" d="M61 92q0 -6 11.5 -27.5t19.5 -35.5l31 -29h1298q33 0 64 30.5t31 61.5v668h-709l117 -342h143v-78h-543v496h992v338h-1393h-1q-4 0 -12 -10q-10 -11 -18 -19q-8 -12 -19.5 -33.5t-11.5 -28.5v-991z" />
<glyph unicode="h" horiz-adv-x="1556" d="M57 0h475v420h488v-420h465v1174h-465v-562q-55 66 -114.5 99.5t-141.5 48.5h-232v414h-475v-1174z" />
<glyph unicode="i" horiz-adv-x="581" d="M61 0v1176h451v-1176h-451z" />
<glyph unicode="j" horiz-adv-x="1228" d="M43 0h995q8 0 28.5 11.5t42 25.5t37 29.5t15.5 25.5v1088h-452v-822h-500z" />
<glyph unicode="k" horiz-adv-x="1576" d="M61 0v1176h459v-492h25l399 492h565l-323 -433l45 5q18 0 54 -8.5t73 -25t64.5 -40t27.5 -51.5v-623h-467v408h-172q-88 0 -154.5 39.5t-132.5 144.5v-592h-463z" />
<glyph unicode="l" horiz-adv-x="1230" d="M61 92v1088h451v-822h500l168 -358h-998q-10 0 -29.5 11.5t-40 25.5t-36 29.5t-15.5 25.5z" />
<glyph unicode="m" horiz-adv-x="1800" d="M61 0h453v401l211 -401h373l217 401v-401h418v1176h-478l-348 -613l-350 613h-496v-1176z" />
<glyph unicode="n" horiz-adv-x="1583" d="M61 0h451v559l571 -559h433v1176h-449v-496l-575 496h-431v-1176z" />
<glyph unicode="o" d="M61 145v877q0 20 16.5 48t40 50.5t50.5 39t49 16.5h1114q37 0 76 -12.5t69.5 -36t50 -58.5t19.5 -78v-837q0 -14 -6 -40t-22.5 -51.5t-45 -44t-71.5 -18.5h-1204q-12 6 -36 19.5t-45.5 32t-38 42t-16.5 51.5zM557 340h496v467h-496v-467z" />
<glyph unicode="p" horiz-adv-x="1523" d="M61 0v1176h1332l63 -62v-680q0 -29 -27.5 -52.5t-64.5 -39.5t-73 -24.5t-54 -8.5h-725v-309h-451zM524 465q66 102 166.5 143t212.5 41h86v187h-465v-371z" />
<glyph unicode="q" horiz-adv-x="1609" d="M61 145q0 -31 17.5 -54t40 -41.5t46 -30t34.5 -17.5q2 0 3 -1l1 -1h1454l-113 139l2 15v839q0 43 -19.5 78t-50 59.5t-69.5 37t-76 12.5h-1114q-23 0 -49.5 -16.5t-50 -40t-40 -50t-16.5 -47.5v-881zM557 340v469h496v-213h-473l225 -256h-248z" />
<glyph unicode="r" horiz-adv-x="1556" d="M61 0h451v373h45l393 -373h566l-279 309q18 0 54 8.5t73 24.5t64.5 40t27.5 52v680l-63 62h-1332v-1176zM524 465v371h465v-187h-86q-113 0 -213 -41t-166 -143z" />
<glyph unicode="s" horiz-adv-x="1470" d="M61 0h1223q16 0 36.5 12.5t39 29.5t31 36.5t12.5 36.5v534q-10 14 -17.5 28.5t-18.5 29t-26.5 28t-42.5 25.5h-491q-82 -14 -154.5 -48t-128.5 -100v224h879v338h-1237q-4 0 -13.5 -5.5t-21.5 -11.5t-22.5 -12t-14.5 -10q-8 -12 -20.5 -38t-12.5 -32v-545q0 -6 1 -17 t8.5 -23.5t26 -28t53.5 -31.5h804v-45l-14 -35h-879v-340z" />
<glyph unicode="t" horiz-adv-x="1460" d="M61 852h428v-852h467v852h437v324h-1332v-324z" />
<glyph unicode="u" d="M61 145q0 -31 17.5 -54t40 -41.5t46 -30t34.5 -17.5q2 0 3 -1l1 -1h1212q33 0 58.5 17.5t41 42t23.5 50t8 44.5v1026h-493v-840h-496v840h-496v-1035z" />
<glyph unicode="v" horiz-adv-x="1542" d="M41 1176l514 -1176h428l512 1176h-512l-205 -543l-223 543h-514z" />
<glyph unicode="w" horiz-adv-x="1894" d="M61 145q0 -31 17.5 -54t40 -41.5t46 -30t34.5 -17.5q2 0 3 -1l1 -1h1499q33 0 56.5 17.5t38.5 42t22.5 50t7.5 44.5v1022h-496v-836h-141v836h-494v-836h-139v836h-496v-1031z" />
<glyph unicode="x" horiz-adv-x="1542" d="M41 0h514l213 244l215 -244h512l-444 559l444 617h-512l-215 -289l-213 289h-514l446 -617z" />
<glyph unicode="y" horiz-adv-x="1583" d="M61 0h1360q33 0 64 30.5t31 61.5v1082h-463v-562q-55 66 -128 99.5t-155 48.5h-231v414h-476v-660q10 -35 34 -57.5t55 -36.5h901v-80h-992v-340z" />
<glyph unicode="z" horiz-adv-x="1460" d="M61 0h1332v324h-676l676 528v324h-1332v-324h666l-659 -528h-7v-324z" />
<glyph unicode="{" horiz-adv-x="837" d="M61 92v991q0 6 11.5 28t19.5 34q8 8 17.5 19.5t13.5 9.5h647v-340h-246v-494h246v-340h-647l-31 29q-8 14 -19.5 35.5t-11.5 27.5z" />
<glyph unicode="|" horiz-adv-x="559" d="M61 -348v1872h431v-1872h-431z" />
<glyph unicode="}" horiz-adv-x="837" d="M61 0h648l30 29q8 14 19.5 35.5t11.5 27.5v991q0 6 -11 28t-20 34q-8 8 -17 19.5t-13 9.5h-648v-340h246v-494h-246v-340z" />
<glyph unicode="~" horiz-adv-x="1775" d="M41 1176l584 -1176h964q59 37 85 65.5t36 69.5v1041h-450v-834h-267l-438 834h-514z" />
<glyph horiz-adv-x="509" />
<glyph unicode="&#xa1;" horiz-adv-x="559" d="M61 0h431v676l-70 82h-295l-66 -78v-680zM61 883q12 -25 32 -42.5t44 -21.5h283q43 10 51 25.5t21 38.5v209q0 8 -5.5 22t-15.5 28.5t-24.5 24t-32.5 9.5h-283q-35 -16 -49 -36t-21 -53v-204z" />
<glyph unicode="&#xa2;" horiz-adv-x="1583" d="M61 92q0 -6 11.5 -27.5t19.5 -35.5l31 -29h539v-344h270v344h489q33 0 64 30.5t31 61.5v404h-449v-156h-135v496h135v-156h449v434l-58 66h-526v348h-270v-348h-537q-2 0 -13.5 -13.5t-19.5 -21.5q-8 -12 -19.5 -33.5t-11.5 -28.5v-991zM524 340v496h138v-496h-138z" />
<glyph unicode="&#xa3;" horiz-adv-x="1572" d="M61 0v358h269v72h-269v340h269v317q0 8 15 24.5t35.5 32t40 27t30.5 11.5h845l-168 -359h-335l2 -55h305v-340h-307v-70h546l166 -358h-1444z" />
<glyph unicode="&#xa4;" horiz-adv-x="1800" d="M61 -2v1176h414v-402l219 402h387l201 -402v402h451v-1176h-496l-352 571l-346 -571h-478z" />
<glyph unicode="&#xa5;" horiz-adv-x="1785" d="M61 0h1360q33 0 64 30.5t31 61.5v107h202v340h-202v106h202v340h-202v189h-478v-189h-204v-225h-27q-82 -14 -155 -48t-128 -100v562h-463v-664q0 -10 10.5 -28.5t18.5 -32.5l53 -29h691v-80h-773v-340z" />
<glyph unicode="&#xa6;" horiz-adv-x="559" d="M61 1176h431v-553h-429zM63 0v559h431v-559h-431z" />
<glyph unicode="&#xa7;" horiz-adv-x="2220" d="M43 0l514 1176h428l125 -287l119 287h428l512 -1176h-512l-199 530l-229 -530h-244l-199 530l-229 -530h-514z" />
<glyph unicode="&#xa8;" horiz-adv-x="1040" d="M61 907v209q12 23 23.5 39t54.5 27h283q25 -4 41 -22.5t29 -43.5v-205q-6 -33 -20.5 -52t-49.5 -36h-283q-18 0 -32.5 9.5t-24.5 23.5t-15.5 27.5t-5.5 23.5zM543 907v209q12 23 23.5 39t54.5 27h282q25 -4 41.5 -22.5t28.5 -43.5v-205q-6 -33 -20.5 -52t-49.5 -36h-282 q-18 0 -33 9.5t-25 23.5t-15 27.5t-5 23.5z" />
<glyph unicode="&#xa9;" horiz-adv-x="983" d="M61 932q0 -37 13.5 -76t38 -69.5t58.5 -51t75 -20.5h487q41 0 75 20.5t57.5 51t36.5 69.5t13 76v244q0 37 -13 75.5t-36.5 69.5t-57.5 51.5t-75 20.5h-487q-41 0 -75 -20.5t-58.5 -51.5t-38 -69.5t-13.5 -75.5v-244zM303 997v113q0 35 22.5 68.5t57.5 33.5h291v-88h-250 q-8 0 -8 -4q0 -8 -2 -10v-115q0 -12 10 -12h250v-86h-291q-35 0 -57.5 32.5t-22.5 67.5z" />
<glyph unicode="&#xaa;" horiz-adv-x="1019" d="M61 467v620q0 35 28 59.5t54 29.5h744q12 0 23.5 -10.5t20.5 -25t15 -30.5t6 -27v-616h-297v186h-297v-186h-297zM358 745q41 61 100.5 86t127.5 25h69v115h-297v-226z" />
<glyph unicode="&#xab;" horiz-adv-x="923" d="M61 254v672l359 139v-379l-268 -94l268 -105v-376zM498 254v672l358 139v-379l-268 -94l268 -105v-376z" />
<glyph unicode="&#xac;" horiz-adv-x="843" d="M61 420v340h715v-529h-338v189h-377z" />
<glyph unicode="&#xad;" horiz-adv-x="722" d="M61 420v340h594v-340h-594z" />
<glyph unicode="&#xae;" horiz-adv-x="983" d="M61 932q0 -37 13.5 -76t38 -69.5t58.5 -51t75 -20.5h487q41 0 75 20.5t57.5 51t36.5 69.5t13 76v244q0 37 -13 75.5t-36.5 69.5t-57.5 51.5t-75 20.5h-487q-41 0 -75 -20.5t-58.5 -51.5t-38 -69.5t-13.5 -75.5v-244zM303 895v215q0 35 22.5 68.5t57.5 33.5h291v-88h-250 q-8 0 -8 -4q0 -8 -2 -10v-215h-111z" />
<glyph unicode="&#xaf;" horiz-adv-x="1185" d="M61 852v324h1057v-324h-1057z" />
<glyph unicode="&#xb0;" horiz-adv-x="559" d="M61 905v209q12 23 23.5 39t54.5 27h283q25 -4 41 -22.5t29 -43.5v-205q-6 -33 -20.5 -52t-49.5 -36h-283q-18 0 -32.5 9.5t-24.5 23.5t-15.5 27.5t-5.5 23.5z" />
<glyph unicode="&#xb1;" horiz-adv-x="845" d="M61 565h187v-188h340v188h188v340h-188v187h-340v-187h-187v-340zM63 0h715v340h-715v-340z" />
<glyph unicode="&#xb2;" horiz-adv-x="933" d="M61 467h805v205h-534v47h495l27 22q4 8 8 16.5t4 14.5v344q0 4 -6 16.5t-10 20.5q-4 4 -19.5 11t-19.5 7h-750v-202h529v-135q-35 41 -78 60t-92 30h-299l-39 -23q-10 -10 -13 -20.5t-8 -24.5v-389z" />
<glyph unicode="&#xb3;" horiz-adv-x="905" d="M61 463l101 215h397v41h-379v203h377l2 34h-395l-101 215h701q6 0 18.5 -6t24.5 -15t21.5 -18.5t9.5 -15.5v-592q0 -6 -10.5 -16t-25 -20.5t-26.5 -17.5t-18 -7h-697z" />
<glyph unicode="&#xb4;" horiz-adv-x="741" d="M59 731q0 29 11 45l272 422q16 8 28.5 15.5t30.5 7.5q27 0 41 -9l205 -133q25 -23 25 -65l-2 -27l-158 -246l-27 -12q-68 -33 -150.5 -66.5t-168.5 -33.5h-21l-55 35q-16 10 -23.5 29.5t-7.5 37.5z" />
<glyph unicode="&#xb5;" horiz-adv-x="1583" d="M61 92q0 -31 31 -61.5t64 -30.5h1360v340h-992v80h901q31 14 54.5 36.5t33.5 57.5v660h-475v-414h-231q-82 -14 -155 -48t-128 -100v562h-463v-1082z" />
<glyph unicode="&#xb6;" horiz-adv-x="1583" d="M61 0h451v348h195l297 -348h512l-445 559l445 617h-512l-297 -392h-193v392h-453v-1176z" />
<glyph unicode="&#xb7;" horiz-adv-x="561" d="M63 504v209q12 23 23.5 39t54.5 26h283q25 -4 41 -22.5t29 -42.5v-205q-6 -33 -20.5 -52.5t-49.5 -35.5h-283q-18 0 -32.5 9t-24.5 23.5t-15.5 28t-5.5 23.5z" />
<glyph unicode="&#xb8;" horiz-adv-x="491" d="M-137 -106v-240h557v346h-340v-106h-217z" />
<glyph unicode="&#xb9;" horiz-adv-x="696" d="M61 471v195h144v317h-144v193h422v-510h146v-195h-568z" />
<glyph unicode="&#xba;" horiz-adv-x="1019" d="M61 563q0 -18 9.5 -32.5t22.5 -25.5t27.5 -18.5t22.5 -11.5h721q27 0 44.5 11.5t26.5 26.5t13 30.5t4 23.5v502q0 53 -42 82t-87 29h-667q-12 0 -28.5 -9.5t-31 -23.5t-25 -31t-10.5 -29v-524zM358 680v278h297v-278h-297z" />
<glyph unicode="&#xbb;" horiz-adv-x="923" d="M61 111l359 143v672l-359 139v-379l269 -94l-269 -105v-376zM498 111l358 143v672l-358 139v-379l268 -94l-268 -105v-376z" />
<glyph unicode="&#xbc;" horiz-adv-x="2068" d="M61 471v195h144v317h-144v193h422v-510h146v-195h-568zM424 0l549 1176h430l-549 -1176h-430zM1049 182l268 523h567v-320h117v-203h-115v-182h-270v182h-567zM1475 389h131v113h-68z" />
<glyph unicode="&#xbd;" horiz-adv-x="2072" d="M61 471h568v195h-146v510h-422v-193h144v-317h-144v-195zM424 0h430l549 1176h-430zM1200 0h805v205h-535v47h496l27 22q4 8 8 16.5t4 14.5v344q0 4 -6 16.5t-10 20.5q-4 4 -19.5 11.5t-19.5 7.5h-750v-203h529v-135q-35 41 -78 60t-92 30h-299l-39 -23 q-10 -10 -13.5 -20.5t-7.5 -24.5v-389z" />
<glyph unicode="&#xbe;" horiz-adv-x="2263" d="M61 467l101 215h397v41h-379v203h377l2 35h-395l-101 215h701q6 0 18.5 -6.5t24.5 -15.5t21.5 -18.5t9.5 -15.5v-592q0 -6 -10.5 -16t-25 -20.5t-26.5 -17.5t-18 -7h-697zM618 0l549 1176h430l-548 -1176h-431zM1243 182l268 523h568v-320h116v-203h-114v-182h-271v182 h-567zM1669 389h131v113h-67z" />
<glyph unicode="&#xbf;" horiz-adv-x="1470" d="M57 92q0 -6 10.5 -26.5t18.5 -32.5q8 -8 32.5 -19.5t31.5 -11.5h1249v338h-879v223q55 -66 128 -99.5t155 -47.5h272l66 35q16 20 20 36.5t13 38.5v230h-1049l-45 -37q-8 -14 -15.5 -28.5t-7.5 -24.5v-574zM729 883q12 -25 28.5 -43.5t41.5 -22.5h295q43 10 54 26.5 t23 39.5v209q0 8 -5 22t-15 28.5t-24.5 24t-32.5 9.5h-295q-35 -16 -49.5 -36t-20.5 -53v-204z" />
<glyph unicode="&#xc0;" horiz-adv-x="1796" d="M61 0l586 1180h979q55 -35 73.5 -65t29.5 -73v-1042h-449v307h-418l187 340h213v189h-250l-437 -836h-514zM860 1499q0 43 25 66l162 106q14 8 40 8q18 0 30.5 -7t29.5 -15l184 -268q10 -16 10 -46q0 -18 -7 -37.5t-23 -29.5l-56 -35h-20q-43 0 -79 13.5t-68.5 34 t-64.5 42t-65 37.5l-26 12l-70 93z" />
<glyph unicode="&#xc1;" horiz-adv-x="1796" d="M61 0l586 1180h979q55 -35 73.5 -65t29.5 -73v-1042h-449v307h-418l187 340h213v189h-250l-437 -836h-514zM932 1348q0 29 10 45l184 268q16 8 28.5 15t31.5 7q27 0 41 -8l162 -106q25 -23 24 -66l-2 -26l-70 -93l-26 -12q-35 -16 -66.5 -37.5t-64.5 -42t-68 -34 t-78 -13.5h-20l-55 35q-16 10 -23.5 29.5t-7.5 38.5z" />
<glyph unicode="&#xc2;" horiz-adv-x="1796" d="M61 0h514l437 836h250v-189h-213l-187 -340h418v-307h449v1042q-10 43 -29 73t-74 65h-979zM682 1245h379l94 268l105 -268h376l-143 359h-672z" />
<glyph unicode="&#xc3;" horiz-adv-x="1796" d="M61 0h514l437 836h250v-189h-213l-187 -340h418v-307h449v1042q-10 43 -29 73t-74 65h-979zM709 1243h249l62 268l70 -268h446l90 359h-248l-63 -269l-68 269h-446z" />
<glyph unicode="&#xc4;" horiz-adv-x="1796" d="M61 0l586 1180h979q55 -35 73.5 -65t29.5 -73v-1042h-449v307h-418l187 340h213v189h-250l-437 -836h-514zM696 1329v209q12 23 23.5 39t54.5 27h283q25 -4 41 -22.5t28 -43.5v-205q-6 -33 -20 -52t-49 -36h-283q-18 0 -32.5 9.5t-24.5 23.5t-15.5 27.5t-5.5 23.5z M1178 1329v209q12 23 23 39t54 27h283q25 -4 41 -22.5t29 -43.5v-205q-6 -33 -20.5 -52t-49.5 -36h-283q-18 0 -32.5 9.5t-24.5 23.5t-15 27.5t-5 23.5z" />
<glyph unicode="&#xc5;" horiz-adv-x="1796" d="M61 0l586 1180h979q55 -35 73.5 -65t29.5 -73v-1042h-449v307h-418l187 340h213v189h-250l-437 -836h-514zM936 1329v209q12 23 23.5 39t54.5 27h282q25 -4 41.5 -22.5t28.5 -43.5v-205q-6 -33 -20.5 -52t-49.5 -36h-282q-18 0 -32.5 9.5t-25 23.5t-15.5 27.5t-5 23.5z " />
<glyph unicode="&#xc6;" horiz-adv-x="2668" d="M61 0h514l437 836h250v-189h-213l-187 -340h408v-307h1331v324h-868v96h559l153 340h-712v96h868v324h-1946z" />
<glyph unicode="&#xc7;" horiz-adv-x="1583" d="M61 92q0 -6 11.5 -27.5t19.5 -35.5l31 -29h559v-106h-217v-240h557v346h399q33 0 64 30.5t31 61.5v404h-449v-156h-543v496h543v-156h449v434l-58 66h-1333q-2 0 -13.5 -13.5t-19.5 -21.5q-8 -12 -19.5 -33.5t-11.5 -28.5v-991z" />
<glyph unicode="&#xc8;" horiz-adv-x="1583" d="M61 92q0 -8 11.5 -28.5t19.5 -34.5q8 -6 17.5 -18.5t13.5 -10.5h1393v340h-992v496h543v-76h-143l-117 -342h709v665q0 31 -31 61t-64 30h-1298l-31 -29q-8 -12 -19.5 -35t-11.5 -27v-991zM512 1503l2 -26l70 -93l26 -12q33 -16 65 -37.5t64.5 -42t68.5 -34t79 -13.5h20 l56 35q16 10 23 29.5t7 38.5q0 29 -10 45l-184 268q-16 8 -28.5 15t-31.5 7q-27 0 -41 -8l-161 -106q-25 -23 -25 -66z" />
<glyph unicode="&#xc9;" horiz-adv-x="1583" d="M61 92v991q0 4 11.5 27t19.5 35l31 29h1298q33 0 64 -30t31 -61v-665h-709l117 342h143v76h-543v-496h992v-340h-1393q-4 -2 -13.5 10.5t-17.5 18.5q-8 14 -19.5 34.5t-11.5 28.5zM612 1348q0 29 11 45l184 268q16 8 28.5 15t30.5 7q27 0 41 -8l162 -106q25 -23 25 -66 l-2 -26l-70 -93l-27 -12q-35 -16 -66.5 -37.5t-64.5 -42t-67.5 -34t-77.5 -13.5h-21l-55 35q-16 10 -23.5 29.5t-7.5 38.5z" />
<glyph unicode="&#xca;" horiz-adv-x="1583" d="M61 92q0 -8 11.5 -28.5t19.5 -34.5q8 -6 17.5 -18.5t13.5 -10.5h1393v340h-992v496h543v-76h-143l-117 -342h709v665q0 31 -31 61t-64 30h-1298l-31 -29q-8 -12 -19.5 -35t-11.5 -27v-991zM319 1245h379l95 268l104 -268h377l-144 359h-671z" />
<glyph unicode="&#xcb;" horiz-adv-x="1583" d="M61 92v991q0 4 11.5 27t19.5 35l31 29h1298q33 0 64 -30t31 -61v-665h-709l117 342h143v76h-543v-496h992v-340h-1393q-4 -2 -13.5 10.5t-17.5 18.5q-8 14 -19.5 34.5t-11.5 28.5zM362 1329v209q12 23 23.5 39t54.5 27h283q25 -4 41 -22.5t29 -43.5v-205 q-6 -33 -20.5 -52t-49.5 -36h-283q-18 0 -32.5 9.5t-24.5 23.5t-15.5 27.5t-5.5 23.5zM844 1329v209q12 23 23.5 39t54.5 27h282q25 -4 41.5 -22.5t28.5 -43.5v-205q-6 -33 -20.5 -52t-49.5 -36h-282q-18 0 -33 9.5t-25 23.5t-15 27.5t-5 23.5z" />
<glyph unicode="&#xcc;" horiz-adv-x="1075" d="M61 0h947v324h-238v528h238v324h-947v-324h242v-528h-242v-324zM281 1499l2 -26l69 -93l27 -12q33 -16 64.5 -37.5t64.5 -42t68.5 -34t78.5 -13.5h21l55 35q16 10 23.5 29.5t7.5 37.5q0 29 -10 46l-185 268q-16 8 -28.5 15t-30.5 7q-27 0 -41 -8l-162 -106 q-25 -23 -24 -66z" />
<glyph unicode="&#xcd;" horiz-adv-x="1075" d="M61 0v324h238v528h-238v324h947v-324h-242v-528h242v-324h-947zM307 1343q0 29 10 46l185 268q16 8 28.5 15t30.5 7q27 0 41 -8l162 -106q25 -23 24 -66l-2 -26l-69 -93l-27 -12q-35 -16 -66.5 -37.5t-64.5 -42t-67.5 -34t-77.5 -13.5h-21l-55 35q-16 10 -23.5 29.5 t-7.5 37.5z" />
<glyph unicode="&#xce;" horiz-adv-x="1075" d="M51 1243h379l94 268l105 -268h377l-144 359h-672zM61 0h947v324h-242v528h242v324h-947v-324h238v-528h-238v-324z" />
<glyph unicode="&#xcf;" horiz-adv-x="1075" d="M61 0v324h238v528h-238v324h947v-324h-242v-528h242v-324h-947zM94 1325v209q12 23 23.5 39t54.5 26h283q25 -4 41 -22t28 -43v-205q-6 -33 -20.5 -52.5t-48.5 -35.5h-283q-18 0 -32.5 9.5t-25 23.5t-15.5 27.5t-5 23.5zM575 1325v209q12 23 23.5 39t54.5 26h283 q25 -4 41 -22t29 -43v-205q-6 -33 -20.5 -52.5t-49.5 -35.5h-283q-18 0 -32.5 9.5t-24.5 23.5t-15.5 27.5t-5.5 23.5z" />
<glyph unicode="&#xd0;" horiz-adv-x="1583" d="M61 0v496h449v-156h543v496h-543v-156h-449v496h1330q2 0 12 -3.5t22.5 -7.5t23.5 -9t15 -9q4 -8 12.5 -21.5t16.5 -29t14 -27.5t6 -18v-938q0 -8 -6 -23.5t-20 -32t-37 -33t-53 -24.5h-1336z" />
<glyph unicode="&#xd1;" horiz-adv-x="1583" d="M61 0h451v559l571 -559h433v1176h-449v-496l-575 496h-431v-1176zM334 1245h250l61 268l70 -268h446l90 359h-247l-64 -269l-68 269h-446z" />
<glyph unicode="&#xd2;" d="M59 154q0 -14 6.5 -40t22.5 -51.5t45 -44t72 -18.5h1204q12 6 35.5 19.5t45 32t38 42t16.5 51.5v877q0 20 -16.5 48t-40 50.5t-51 39t-47.5 16.5h-1115q-37 0 -75.5 -12.5t-69.5 -36t-50.5 -58.5t-19.5 -78v-837zM512 1503l2 -26l70 -93l26 -12q33 -16 65 -37.5t64.5 -42 t68.5 -34t79 -13.5h20l56 35q16 10 23 29.5t7 38.5q0 29 -10 45l-184 268q-16 8 -28.5 15t-31.5 7q-27 0 -41 -8l-161 -106q-25 -23 -25 -66zM553 340v467h496v-467h-496z" />
<glyph unicode="&#xd3;" d="M61 145v877q0 20 16.5 48t40 50.5t50.5 39t49 16.5h1114q37 0 76 -12.5t69.5 -36t50 -58.5t19.5 -78v-837q0 -14 -6 -40t-22.5 -51.5t-45 -44t-71.5 -18.5h-1204q-12 6 -36 19.5t-45.5 32t-38 42t-16.5 51.5zM557 340h496v467h-496v-467zM612 1348q0 29 11 45l184 268 q16 8 28.5 15t30.5 7q27 0 41 -8l162 -106q25 -23 25 -66l-2 -26l-70 -93l-27 -12q-35 -16 -66.5 -37.5t-64.5 -42t-67.5 -34t-77.5 -13.5h-21l-55 35q-16 10 -23.5 29.5t-7.5 38.5z" />
<glyph unicode="&#xd4;" d="M61 145q0 -29 16.5 -52t38 -41.5t45 -32t36.5 -19.5h1204q43 0 71.5 18.5t45 44t22.5 51t6 40.5v837q0 43 -19.5 78t-50 58.5t-69.5 36t-76 12.5h-1114q-23 0 -49.5 -16.5t-50 -39t-40 -50.5t-16.5 -48v-877zM319 1245h379l95 268l104 -268h377l-144 359h-671zM557 340 v467h496v-467h-496z" />
<glyph unicode="&#xd5;" d="M61 145q0 -29 16.5 -52t38 -41.5t45 -32t36.5 -19.5h1204q43 0 71.5 18.5t45 44t22.5 51t6 40.5v837q0 43 -19.5 78t-50 58.5t-69.5 36t-76 12.5h-1114q-23 0 -49.5 -16.5t-50 -39t-40 -50.5t-16.5 -48v-877zM334 1245h250l61 268l70 -268h446l90 359h-247l-64 -269 l-68 269h-446zM557 340v467h496v-467h-496z" />
<glyph unicode="&#xd6;" d="M61 145v877q0 20 16.5 48t40 50.5t50.5 39t49 16.5h1114q37 0 76 -12.5t69.5 -36t50 -58.5t19.5 -78v-837q0 -14 -6 -40t-22.5 -51.5t-45 -44t-71.5 -18.5h-1204q-12 6 -36 19.5t-45.5 32t-38 42t-16.5 51.5zM356 1329v209q12 23 23.5 39t54.5 27h283q25 -4 41 -22.5 t28 -43.5v-205q-6 -33 -20 -52t-49 -36h-283q-18 0 -32.5 9.5t-24.5 23.5t-15.5 27.5t-5.5 23.5zM557 340h496v467h-496v-467zM838 1329v209q12 23 23 39t54 27h283q25 -4 41 -22.5t29 -43.5v-205q-6 -33 -20.5 -52t-49.5 -36h-283q-18 0 -32.5 9.5t-24.5 23.5t-15 27.5 t-5 23.5z" />
<glyph unicode="&#xd7;" horiz-adv-x="1048" d="M61 221l283 340l-283 375h326l135 -174l135 174h324l-281 -375l281 -340h-324l-135 150l-135 -150h-326z" />
<glyph unicode="&#xd8;" d="M61 145q0 -29 16.5 -52t38 -41.5t45 -32t36.5 -19.5h1204q43 0 71.5 18.5t45 44t22.5 51t6 40.5v837q0 43 -19.5 78t-50 58.5t-69.5 36t-76 12.5h-1114q-23 0 -49.5 -16.5t-50 -39t-40 -50.5t-16.5 -48v-877zM557 504v303h141zM909 340l144 305v-305h-144z" />
<glyph unicode="&#xd9;" d="M61 154v1026h494v-840h496v840h495v-1035q0 -31 -17.5 -54t-41 -41.5t-46 -30t-32.5 -17.5q-2 0 -3 -1l-1 -1h-1212q-35 0 -59.5 17.5t-40 42t-24 50t-8.5 44.5zM514 1503q0 43 25 66l161 106q14 8 41 8q18 0 30.5 -7t29.5 -15l184 -268q10 -16 10 -45q0 -18 -7 -38 t-23 -30l-56 -35h-20q-43 0 -79 13.5t-68.5 34t-64.5 42t-65 37.5l-26 12l-70 93z" />
<glyph unicode="&#xda;" d="M61 145v1035h496v-840h496v840h493v-1026q0 -18 -8 -44t-23.5 -50.5t-41 -42t-58.5 -17.5h-1212l-1 1t-3 1q-10 6 -34 17.5t-46.5 30t-40 42t-17.5 53.5zM612 1348q0 29 11 45l184 268q16 8 28.5 15t30.5 7q27 0 41 -8l162 -106q25 -23 25 -66l-2 -26l-70 -93l-27 -12 q-35 -16 -66.5 -37.5t-64.5 -42t-67.5 -34t-77.5 -13.5h-21l-55 35q-16 10 -23.5 29.5t-7.5 38.5z" />
<glyph unicode="&#xdb;" d="M57 145q0 -31 17.5 -54t40 -41.5t46 -30t34.5 -17.5q2 0 3 -1l1 -1h1212q33 0 58.5 17.5t41 42t23.5 50t8 44.5v1026h-493v-840h-496v840h-496v-1035zM319 1245h379l95 268l104 -268h377l-144 359h-671z" />
<glyph unicode="&#xdc;" d="M61 145v1035h496v-840h496v840h493v-1026q0 -18 -8 -44t-23.5 -50.5t-41 -42t-58.5 -17.5h-1212l-1 1t-3 1q-10 6 -34 17.5t-46.5 30t-40 42t-17.5 53.5zM362 1329v209q12 23 23.5 39t54.5 27h283q25 -4 41 -22.5t29 -43.5v-205q-6 -33 -20.5 -52t-49.5 -36h-283 q-18 0 -32.5 9.5t-24.5 23.5t-15.5 27.5t-5.5 23.5zM844 1329v209q12 23 23.5 39t54.5 27h282q25 -4 41.5 -22.5t28.5 -43.5v-205q-6 -33 -20.5 -52t-49.5 -36h-282q-18 0 -33 9.5t-25 23.5t-15 27.5t-5 23.5z" />
<glyph unicode="&#xdd;" horiz-adv-x="1583" d="M61 0v340h992l14 35v45h-924l-53 29q-8 14 -18.5 32.5t-10.5 28.5v664h463v-562q55 66 128 99.5t155 48.5h231v414h478v-1082q0 -31 -31 -61.5t-64 -30.5h-1360zM612 1348q0 29 11 45l184 268q16 8 28.5 15t30.5 7q27 0 41 -8l162 -106q25 -23 25 -66l-2 -26l-70 -93 l-27 -12q-35 -16 -66.5 -37.5t-64.5 -42t-67.5 -34t-77.5 -13.5h-21l-55 35q-16 10 -23.5 29.5t-7.5 38.5z" />
<glyph unicode="&#xde;" horiz-adv-x="1523" d="M61 0h451v160h725q18 0 54 8t73 24.5t64.5 40t27.5 52.5v680l-63 61h-901v150h-431v-1176zM524 315v371h465v-186h-86q-113 0 -213 -41t-166 -144z" />
<glyph unicode="&#xdf;" horiz-adv-x="1527" d="M61 0h1299q35 6 64.5 33.5t35.5 58.5v985q-4 23 -30.5 55.5t-73.5 43.5h-1295v-1176zM522 614v222h467v-72h-90q-100 0 -191.5 -26.5t-158.5 -110.5zM524 342v121h463v-121h-463z" />
<glyph unicode="&#xe0;" d="M61 0v1034q0 29 13.5 53.5t34 44t44 32t44.5 16.5h1239q20 0 40.5 -17.5t36 -41t24.5 -50.5t9 -45v-1026h-493v309h-496v-309h-496zM514 1503q0 43 25 66l161 106q14 8 41 8q18 0 30.5 -7t29.5 -15l184 -268q10 -16 10 -45q0 -18 -7 -38t-23 -30l-56 -35h-20 q-43 0 -79 13.5t-68.5 34t-64.5 42t-65 37.5l-26 12l-70 93zM557 463q66 104 166 144t213 40h117v193h-496v-377z" />
<glyph unicode="&#xe1;" d="M61 0v1034q0 29 13.5 53.5t34 44t44 32t44.5 16.5h1239q20 0 40.5 -17.5t36 -41t24.5 -50.5t9 -45v-1026h-493v309h-496v-309h-496zM557 463q66 104 166 144t213 40h117v193h-496v-377zM612 1348q0 29 11 45l184 268q16 8 28.5 15t30.5 7q27 0 41 -8l162 -106 q25 -23 25 -66l-2 -26l-70 -93l-27 -12q-35 -16 -66.5 -37.5t-64.5 -42t-67.5 -34t-77.5 -13.5h-21l-55 35q-16 10 -23.5 29.5t-7.5 38.5z" />
<glyph unicode="&#xe2;" d="M61 0h496v309h496v-309h493v1026q0 18 -9 45t-24.5 50.5t-36 41t-40.5 17.5h-1239q-20 -4 -44 -16.5t-44.5 -32t-34 -44t-13.5 -53.5v-1034zM319 1245h379l95 268l104 -268h377l-144 359h-671zM557 463v377h496v-193h-117q-113 0 -213 -40t-166 -144z" />
<glyph unicode="&#xe3;" d="M61 0h496v309h496v-309h493v1026q0 18 -9 45t-24.5 50.5t-36 41t-40.5 17.5h-1239q-20 -4 -44 -16.5t-44.5 -32t-34 -44t-13.5 -53.5v-1034zM334 1245h250l61 268l70 -268h446l90 359h-247l-64 -269l-68 269h-446zM557 463v377h496v-193h-117q-113 0 -213 -40t-166 -144z " />
<glyph unicode="&#xe4;" d="M61 0v1034q0 29 13.5 53.5t34 44t44 32t44.5 16.5h1239q20 0 40.5 -17.5t36 -41t24.5 -50.5t9 -45v-1026h-493v309h-496v-309h-496zM362 1329v209q12 23 23.5 39t54.5 27h283q25 -4 41 -22.5t29 -43.5v-205q-6 -33 -20.5 -52t-49.5 -36h-283q-18 0 -32.5 9.5t-24.5 23.5 t-15.5 27.5t-5.5 23.5zM557 463q66 104 166 144t213 40h117v193h-496v-377zM844 1329v209q12 23 23.5 39t54.5 27h282q25 -4 41.5 -22.5t28.5 -43.5v-205q-6 -33 -20.5 -52t-49.5 -36h-282q-18 0 -33 9.5t-25 23.5t-15 27.5t-5 23.5z" />
<glyph unicode="&#xe5;" d="M61 0v1034q0 29 13.5 53.5t34 44t44 32t44.5 16.5h1239q20 0 40.5 -17.5t36 -41t24.5 -50.5t9 -45v-1026h-493v309h-496v-309h-496zM557 463q66 104 166 144t213 40h117v193h-496v-377zM608 1329v209q12 23 23.5 39t54.5 27h283q25 -4 41 -22.5t28 -43.5v-205 q-6 -33 -20 -52t-49 -36h-283q-18 0 -32.5 9.5t-25 23.5t-15.5 27.5t-5 23.5z" />
<glyph unicode="&#xe6;" horiz-adv-x="2482" d="M61 0h496v309h496v-309h1362v324h-869v96h559l154 340h-713v96h869v324h-2218q-20 -4 -44 -16.5t-44.5 -32t-34 -44t-13.5 -53.5v-1034zM557 463v377h496v-193h-117q-113 0 -213 -40t-166 -144z" />
<glyph unicode="&#xe7;" horiz-adv-x="1583" d="M61 92q0 -6 11.5 -27.5t19.5 -35.5l31 -29h559v-106h-217v-240h557v346h399q33 0 64 30.5t31 61.5v404h-449v-156h-543v496h543v-156h449v434l-58 66h-1333q-2 0 -13.5 -13.5t-19.5 -21.5q-8 -12 -19.5 -33.5t-11.5 -28.5v-991z" />
<glyph unicode="&#xe8;" horiz-adv-x="1460" d="M61 0h1332v324h-869v96h559l154 340h-713v96h869v324h-1332v-1180zM432 1501l2 -26l70 -93l26 -12q33 -16 65 -37.5t64.5 -42t68.5 -34t79 -13.5h20l56 35q16 10 23 29.5t7 38.5q0 29 -10 45l-184 268q-16 8 -28.5 15t-31.5 7q-27 0 -41 -8l-161 -106q-25 -23 -25 -66z " />
<glyph unicode="&#xe9;" horiz-adv-x="1460" d="M61 0v1180h1332v-324h-869v-96h713l-154 -340h-559v-96h869v-324h-1332zM541 1346q0 29 10 45l184 268q16 8 28.5 15t31.5 7q27 0 41 -8l161 -106q25 -23 25 -66l-2 -26l-70 -93l-26 -12q-35 -16 -67 -37.5t-64.5 -42t-67.5 -34t-78 -13.5h-20l-56 35q-16 10 -23 29.5 t-7 38.5z" />
<glyph unicode="&#xea;" horiz-adv-x="1460" d="M61 0h1332v324h-869v96h559l154 340h-713v96h869v324h-1332v-1180zM240 1245h378l95 268l104 -268h377l-143 359h-672z" />
<glyph unicode="&#xeb;" horiz-adv-x="1460" d="M61 0v1180h1332v-324h-869v-96h713l-154 -340h-559v-96h869v-324h-1332zM264 1329v209q12 23 23.5 39t54.5 27h283q25 -4 41 -22.5t28 -43.5v-205q-6 -33 -20.5 -52t-48.5 -36h-283q-18 0 -32.5 9.5t-25 23.5t-15.5 27.5t-5 23.5zM745 1329v209q12 23 23.5 39t54.5 27 h283q25 -4 41 -22.5t29 -43.5v-205q-6 -33 -20.5 -52t-49.5 -36h-283q-18 0 -32.5 9.5t-24.5 23.5t-15.5 27.5t-5.5 23.5z" />
<glyph unicode="&#xec;" horiz-adv-x="559" d="M33 1505l2 -26l69 -93l27 -12q33 -16 64.5 -37.5t64.5 -42t69 -34t79 -13.5h20l55 35q16 10 23.5 29.5t7.5 38.5q0 29 -10 45l-185 268q-16 8 -28 15.5t-31 7.5q-27 0 -41 -9l-162 -106q-25 -23 -24 -66zM61 0h431v1176h-431v-1176z" />
<glyph unicode="&#xed;" horiz-adv-x="559" d="M47 1341q0 29 10 45l185 269q16 8 28.5 15t30.5 7q27 0 41 -8l162 -106q25 -23 24 -66l-2 -27l-69 -92l-27 -12q-35 -16 -66.5 -37.5t-64.5 -42t-67.5 -34t-77.5 -13.5h-21l-55 35q-16 10 -23.5 29.5t-7.5 37.5zM61 0v1176h431v-1176h-431z" />
<glyph unicode="&#xee;" horiz-adv-x="559" d="M-195 1239h379l95 268l104 -268h377l-144 358h-671zM61 0h431v1176h-431v-1176z" />
<glyph unicode="&#xef;" horiz-adv-x="559" d="M-166 1325v209q12 23 23.5 39t54.5 26h283q25 -4 41 -22t28 -43v-205q-6 -33 -20.5 -52.5t-48.5 -35.5h-283q-18 0 -32.5 9.5t-25 23.5t-15.5 27.5t-5 23.5zM61 0v1176h431v-1176h-431zM315 1325v209q12 23 23.5 39t54.5 26h283q25 -4 41 -22t28 -43v-205 q-6 -33 -20 -52.5t-49 -35.5h-283q-18 0 -32.5 9.5t-24.5 23.5t-15.5 27.5t-5.5 23.5z" />
<glyph unicode="&#xf0;" horiz-adv-x="1470" d="M57 88q0 -31 31 -60.5t64 -29.5h1185l31 29q8 12 19.5 34.5t11.5 26.5v991q0 8 -11.5 28.5t-19.5 35.5q-8 6 -17.5 18.5t-13.5 9.5h-1280v-340h879v-495h-430v76h237l117 342h-803v-666z" />
<glyph unicode="&#xf1;" horiz-adv-x="1583" d="M61 0h451v559l571 -559h433v1176h-449v-496l-575 496h-431v-1176zM334 1245h250l61 268l70 -268h446l90 359h-247l-64 -269l-68 269h-446z" />
<glyph unicode="&#xf2;" d="M59 154q0 -14 6.5 -40t22.5 -51.5t45 -44t72 -18.5h1204q12 6 35.5 19.5t45 32t38 42t16.5 51.5v877q0 20 -16.5 48t-40 50.5t-51 39t-47.5 16.5h-1115q-37 0 -75.5 -12.5t-69.5 -36t-50.5 -58.5t-19.5 -78v-837zM512 1503l2 -26l70 -93l26 -12q33 -16 65 -37.5t64.5 -42 t68.5 -34t79 -13.5h20l56 35q16 10 23 29.5t7 38.5q0 29 -10 45l-184 268q-16 8 -28.5 15t-31.5 7q-27 0 -41 -8l-161 -106q-25 -23 -25 -66zM553 340v467h496v-467h-496z" />
<glyph unicode="&#xf3;" d="M61 145v877q0 20 16.5 48t40 50.5t50.5 39t49 16.5h1114q37 0 76 -12.5t69.5 -36t50 -58.5t19.5 -78v-837q0 -14 -6 -40t-22.5 -51.5t-45 -44t-71.5 -18.5h-1204q-12 6 -36 19.5t-45.5 32t-38 42t-16.5 51.5zM557 340h496v467h-496v-467zM612 1348q0 29 11 45l184 268 q16 8 28.5 15t30.5 7q27 0 41 -8l162 -106q25 -23 25 -66l-2 -26l-70 -93l-27 -12q-35 -16 -66.5 -37.5t-64.5 -42t-67.5 -34t-77.5 -13.5h-21l-55 35q-16 10 -23.5 29.5t-7.5 38.5z" />
<glyph unicode="&#xf4;" d="M61 145q0 -29 16.5 -52t38 -41.5t45 -32t36.5 -19.5h1204q43 0 71.5 18.5t45 44t22.5 51t6 40.5v837q0 43 -19.5 78t-50 58.5t-69.5 36t-76 12.5h-1114q-23 0 -49.5 -16.5t-50 -39t-40 -50.5t-16.5 -48v-877zM319 1245h379l95 268l104 -268h377l-144 359h-671zM557 340 v467h496v-467h-496z" />
<glyph unicode="&#xf5;" d="M61 145q0 -29 16.5 -52t38 -41.5t45 -32t36.5 -19.5h1204q43 0 71.5 18.5t45 44t22.5 51t6 40.5v837q0 43 -19.5 78t-50 58.5t-69.5 36t-76 12.5h-1114q-23 0 -49.5 -16.5t-50 -39t-40 -50.5t-16.5 -48v-877zM334 1245h250l61 268l70 -268h446l90 359h-247l-64 -269 l-68 269h-446zM557 340v467h496v-467h-496z" />
<glyph unicode="&#xf6;" d="M61 145v877q0 20 16.5 48t40 50.5t50.5 39t49 16.5h1114q37 0 76 -12.5t69.5 -36t50 -58.5t19.5 -78v-837q0 -14 -6 -40t-22.5 -51.5t-45 -44t-71.5 -18.5h-1204q-12 6 -36 19.5t-45.5 32t-38 42t-16.5 51.5zM356 1329v209q12 23 23.5 39t54.5 27h283q25 -4 41 -22.5 t28 -43.5v-205q-6 -33 -20 -52t-49 -36h-283q-18 0 -32.5 9.5t-24.5 23.5t-15.5 27.5t-5.5 23.5zM557 340h496v467h-496v-467zM838 1329v209q12 23 23 39t54 27h283q25 -4 41 -22.5t29 -43.5v-205q-6 -33 -20.5 -52t-49.5 -36h-283q-18 0 -32.5 9.5t-24.5 23.5t-15 27.5 t-5 23.5z" />
<glyph unicode="&#xf7;" horiz-adv-x="1013" d="M61 420h885v340h-885v-340zM281 84q0 -10 5 -23.5t15 -28t24.5 -23.5t32.5 -9h283q35 16 49.5 35.5t20.5 52.5v205q-12 25 -28.5 43t-41.5 22h-283q-43 -10 -54 -26.5t-23 -38.5v-209zM281 915q0 -10 5 -23t15 -27.5t24.5 -24t32.5 -9.5h283q35 16 49.5 36t20.5 53v204 q-12 25 -28.5 43.5t-41.5 22.5h-283q-43 -10 -54 -26.5t-23 -39.5v-209z" />
<glyph unicode="&#xf8;" d="M61 145q0 -29 16.5 -52t38 -41.5t45 -32t36.5 -19.5h1204q43 0 71.5 18.5t45 44t22.5 51t6 40.5v837q0 43 -19.5 78t-50 58.5t-69.5 36t-76 12.5h-1114q-23 0 -49.5 -16.5t-50 -39t-40 -50.5t-16.5 -48v-877zM557 504v303h141zM909 340l144 305v-305h-144z" />
<glyph unicode="&#xf9;" d="M61 154v1026h494v-840h496v840h495v-1035q0 -31 -17.5 -54t-41 -41.5t-46 -30t-32.5 -17.5q-2 0 -3 -1l-1 -1h-1212q-35 0 -59.5 17.5t-40 42t-24 50t-8.5 44.5zM514 1503q0 43 25 66l161 106q14 8 41 8q18 0 30.5 -7t29.5 -15l184 -268q10 -16 10 -45q0 -18 -7 -38 t-23 -30l-56 -35h-20q-43 0 -79 13.5t-68.5 34t-64.5 42t-65 37.5l-26 12l-70 93z" />
<glyph unicode="&#xfa;" d="M61 145v1035h496v-840h496v840h493v-1026q0 -18 -8 -44t-23.5 -50.5t-41 -42t-58.5 -17.5h-1212l-1 1t-3 1q-10 6 -34 17.5t-46.5 30t-40 42t-17.5 53.5zM612 1348q0 29 11 45l184 268q16 8 28.5 15t30.5 7q27 0 41 -8l162 -106q25 -23 25 -66l-2 -26l-70 -93l-27 -12 q-35 -16 -66.5 -37.5t-64.5 -42t-67.5 -34t-77.5 -13.5h-21l-55 35q-16 10 -23.5 29.5t-7.5 38.5z" />
<glyph unicode="&#xfb;" d="M57 145q0 -31 17.5 -54t40 -41.5t46 -30t34.5 -17.5q2 0 3 -1l1 -1h1212q33 0 58.5 17.5t41 42t23.5 50t8 44.5v1026h-493v-840h-496v840h-496v-1035zM319 1245h379l95 268l104 -268h377l-144 359h-671z" />
<glyph unicode="&#xfc;" d="M61 145v1035h496v-840h496v840h493v-1026q0 -18 -8 -44t-23.5 -50.5t-41 -42t-58.5 -17.5h-1212l-1 1t-3 1q-10 6 -34 17.5t-46.5 30t-40 42t-17.5 53.5zM362 1329v209q12 23 23.5 39t54.5 27h283q25 -4 41 -22.5t29 -43.5v-205q-6 -33 -20.5 -52t-49.5 -36h-283 q-18 0 -32.5 9.5t-24.5 23.5t-15.5 27.5t-5.5 23.5zM844 1329v209q12 23 23.5 39t54.5 27h282q25 -4 41.5 -22.5t28.5 -43.5v-205q-6 -33 -20.5 -52t-49.5 -36h-282q-18 0 -33 9.5t-25 23.5t-15 27.5t-5 23.5z" />
<glyph unicode="&#xfd;" horiz-adv-x="1583" d="M61 0v340h992v80h-901q-31 14 -54.5 36.5t-34.5 57.5v660h476v-414h231q82 -14 155 -48t128 -100v562h463v-1082q0 -31 -31 -61.5t-64 -30.5h-1360zM612 1348q0 29 11 45l184 268q16 8 28.5 15t30.5 7q27 0 41 -8l162 -106q25 -23 25 -66l-2 -26l-70 -93l-27 -12 q-35 -16 -66.5 -37.5t-64.5 -42t-67.5 -34t-77.5 -13.5h-21l-55 35q-16 10 -23.5 29.5t-7.5 38.5z" />
<glyph unicode="&#xfe;" horiz-adv-x="1523" d="M61 0h451v160h725q18 0 54 8t73 24.5t64.5 40t27.5 52.5v680l-63 61h-901v150h-431v-1176zM524 315v371h465v-186h-86q-113 0 -213 -41t-166 -144z" />
<glyph unicode="&#xff;" horiz-adv-x="1583" d="M61 0v340h992v80h-901q-31 14 -54.5 36.5t-34.5 57.5v660h476v-414h231q82 -14 155 -48t128 -100v562h463v-1082q0 -31 -31 -61.5t-64 -30.5h-1360zM338 1331v209q12 23 23.5 39t54.5 27h282q25 -4 41.5 -22.5t28.5 -43.5v-205q-6 -33 -20.5 -52t-49.5 -36h-282 q-18 0 -32.5 9.5t-25 23.5t-15.5 27.5t-5 23.5zM819 1331v209q12 23 23.5 39t54.5 27h283q25 -4 41 -22.5t28 -43.5v-205q-6 -33 -20.5 -52t-48.5 -36h-283q-18 0 -32.5 9.5t-25 23.5t-15.5 27.5t-5 23.5z" />
<glyph unicode="&#x152;" horiz-adv-x="2453" d="M61 92q0 -6 11.5 -27.5t19.5 -35.5l31 -29h2263v324h-868v96h559l153 340h-712v92h868v324h-2251q-2 0 -18.5 -11.5t-24.5 -19.5q-8 -12 -19.5 -33.5t-11.5 -28.5v-991zM524 340v496h531v-496h-531z" />
<glyph unicode="&#x153;" horiz-adv-x="2453" d="M61 92q0 -6 11.5 -27.5t19.5 -35.5l31 -29h2263v324h-868v96h559l153 340h-712v92h868v324h-2251q-2 0 -18.5 -11.5t-24.5 -19.5q-8 -12 -19.5 -33.5t-11.5 -28.5v-991zM524 340v496h531v-496h-531z" />
<glyph unicode="&#x178;" horiz-adv-x="1583" d="M61 0v340h992l14 35v45h-924l-53 29q-8 14 -18.5 32.5t-10.5 28.5v664h463v-562q55 66 128 99.5t155 48.5h231v414h478v-1082q0 -31 -31 -61.5t-64 -30.5h-1360zM338 1331v209q12 23 23.5 39t54.5 27h282q25 -4 41.5 -22.5t28.5 -43.5v-205q-6 -33 -20.5 -52t-49.5 -36 h-282q-18 0 -32.5 9.5t-25 23.5t-15.5 27.5t-5 23.5zM819 1331v209q12 23 23.5 39t54.5 27h283q25 -4 41 -22.5t28 -43.5v-205q-6 -33 -20.5 -52t-48.5 -36h-283q-18 0 -32.5 9.5t-25 23.5t-15.5 27.5t-5 23.5z" />
<glyph unicode="&#x2c6;" horiz-adv-x="1083" d="M61 815h379l95 268l104 -268h377l-144 359h-671z" />
<glyph unicode="&#x2dc;" horiz-adv-x="1046" d="M61 817h250l62 268l69 -268h447l90 359h-248l-63 -269l-68 269h-446z" />
<glyph unicode="&#x2000;" horiz-adv-x="843" />
<glyph unicode="&#x2001;" horiz-adv-x="1686" />
<glyph unicode="&#x2002;" horiz-adv-x="843" />
<glyph unicode="&#x2003;" horiz-adv-x="1686" />
<glyph unicode="&#x2004;" horiz-adv-x="562" />
<glyph unicode="&#x2005;" horiz-adv-x="421" />
<glyph unicode="&#x2006;" horiz-adv-x="281" />
<glyph unicode="&#x2007;" horiz-adv-x="281" />
<glyph unicode="&#x2008;" horiz-adv-x="210" />
<glyph unicode="&#x2009;" horiz-adv-x="337" />
<glyph unicode="&#x200a;" horiz-adv-x="93" />
<glyph unicode="&#x2010;" horiz-adv-x="843" d="M61 420h715v340h-715v-340z" />
<glyph unicode="&#x2011;" horiz-adv-x="843" d="M61 420h715v340h-715v-340z" />
<glyph unicode="&#x2012;" horiz-adv-x="843" d="M61 420h715v340h-715v-340z" />
<glyph unicode="&#x2013;" horiz-adv-x="843" d="M61 420h715v340h-715v-340z" />
<glyph unicode="&#x2014;" horiz-adv-x="1013" d="M61 420v340h885v-340h-885z" />
<glyph unicode="&#x2018;" horiz-adv-x="538" d="M61 590v293q23 35 48.5 75.5t55.5 80.5t65.5 76t78.5 61h84q18 0 32.5 -9.5t25 -24t15.5 -28.5t5 -22v-502q-12 -23 -23.5 -39t-54.5 -27h-262q-25 4 -41 22.5t-29 43.5z" />
<glyph unicode="&#x2019;" horiz-adv-x="538" d="M61 608q0 -10 5.5 -23.5t15.5 -27.5t24.5 -23.5t32.5 -9.5h84q43 25 79 61t65.5 75.5t55.5 80.5t48 76v293q-12 25 -28.5 43t-41.5 23h-262q-43 -10 -54 -26.5t-24 -39.5v-502z" />
<glyph unicode="&#x201a;" horiz-adv-x="550" d="M61 -209q0 -10 5.5 -23.5t15.5 -27.5t24.5 -23.5t32.5 -9.5h97q43 25 78.5 60.5t65.5 75.5t55.5 81t47.5 76v293q-12 25 -28.5 43t-40.5 22h-275q-43 -10 -54 -26.5t-24 -38.5v-502z" />
<glyph unicode="&#x201c;" horiz-adv-x="999" d="M59 590v293q23 35 48.5 75.5t55.5 80.5t65.5 76t78.5 61h84q18 0 32.5 -9.5t25 -24t15.5 -28.5t5 -22v-502q-12 -23 -23.5 -39t-54.5 -27h-262q-25 4 -41 22.5t-29 43.5zM520 590v293q23 35 48.5 75.5t55 80.5t65.5 76t79 61h84q18 0 32.5 -9.5t25 -24t15.5 -28.5t5 -22 v-502q-12 -23 -23.5 -39t-54.5 -27h-262q-25 4 -41.5 22.5t-28.5 43.5z" />
<glyph unicode="&#x201d;" horiz-adv-x="999" d="M61 608q0 -10 5.5 -23.5t15.5 -27.5t24.5 -23.5t32.5 -9.5h84q43 25 79 61t65.5 75.5t55.5 80.5t48 76v293q-12 25 -28.5 43t-41.5 23h-262q-43 -10 -54 -26.5t-24 -39.5v-502zM522 608q0 -10 5 -23.5t15.5 -27.5t25 -23.5t32.5 -9.5h84q43 25 79 61t65.5 75.5t55 80.5 t48.5 76v293q-12 25 -28.5 43t-41.5 23h-262q-43 -10 -54 -26.5t-24 -39.5v-502z" />
<glyph unicode="&#x201e;" horiz-adv-x="1032" d="M61 -209v502q12 23 23.5 39t54.5 26h275q25 -4 41 -22.5t28 -42.5v-293q-23 -35 -48 -76t-55 -81t-65.5 -75.5t-78.5 -60.5h-97q-18 0 -32.5 9.5t-24.5 23.5t-15.5 27.5t-5.5 23.5zM543 -209v502q12 23 23.5 39t54.5 26h274q25 -4 41 -22.5t29 -42.5v-293 q-23 -35 -48.5 -76t-55.5 -81t-65.5 -75.5t-78.5 -60.5h-96q-18 0 -33 9.5t-25 23.5t-15 27.5t-5 23.5z" />
<glyph unicode="&#x2022;" horiz-adv-x="624" d="M61 340v467h496v-467h-496z" />
<glyph unicode="&#x2026;" horiz-adv-x="1554" d="M61 84v209q12 23 23.5 39t54.5 26h283q25 -4 41 -22.5t29 -42.5v-205q-6 -33 -20.5 -52.5t-49.5 -35.5h-283q-18 0 -32.5 9t-24.5 23.5t-15.5 28t-5.5 23.5zM543 84v209q12 23 23.5 39t54.5 26h282q25 -4 41.5 -22.5t28.5 -42.5v-205q-6 -33 -20.5 -52.5t-49.5 -35.5 h-282q-18 0 -33 9t-25 23.5t-15 28t-5 23.5zM1024 84v209q12 23 23.5 39t54.5 26h282q25 -4 41.5 -22.5t28.5 -42.5v-205q-6 -33 -20.5 -52.5t-49.5 -35.5h-282q-18 0 -32.5 9t-25 23.5t-15.5 28t-5 23.5z" />
<glyph unicode="&#x202f;" horiz-adv-x="337" />
<glyph unicode="&#x2039;" horiz-adv-x="487" d="M59 254v672l359 139v-379l-268 -94l268 -105v-376z" />
<glyph unicode="&#x203a;" horiz-adv-x="487" d="M61 111l359 143v672l-359 139v-379l269 -94l-269 -105v-376z" />
<glyph unicode="&#x205f;" horiz-adv-x="421" />
<glyph unicode="&#x20ac;" horiz-adv-x="1761" d="M61 190h179v-98q0 -6 11 -27.5t19 -35.5l31 -29h1298q33 0 64 30.5t31 61.5v404h-449v-156h-299v190h-244v107h244v199h299v-156h449v434l-58 66h-1333q-2 0 -13 -13.5t-20 -21.5q-8 -12 -19 -33.5t-11 -28.5v-106h-179v-340h179v-107h-179v-340z" />
<glyph unicode="&#x2122;" horiz-adv-x="1583" d="M61 0h451v373h45l393 -373h566l-279 309q18 0 54 8.5t73 24.5t64.5 40t27.5 52v742h-467v-527h-86q-113 0 -213 -41t-166 -143v711h-463v-1176z" />
<glyph unicode="&#x25fc;" horiz-adv-x="1177" d="M0 0v1178h1178v-1178h-1178z" />
</font>
</defs>
</svg>
